<?xml version="1.0" standalone="no"?>
<!DOCTYPE svg PUBLIC "-//W3C//DTD SVG 20010904//EN"
 "http://www.w3.org/TR/2001/REC-SVG-20010904/DTD/svg10.dtd">
<svg version="1.0" xmlns="http://www.w3.org/2000/svg"
 width="300.000000pt" height="300.000000pt" viewBox="0 0 300.000000 300.000000"
 preserveAspectRatio="xMidYMid meet">
<metadata>
Created by potrace 1.14, written by Peter Selinger 2001-2017
</metadata>
<g transform="translate(0.000000,300.000000) scale(0.100000,-0.100000)"
fill="#000000" stroke="none">
<path d="M1464 2992 c-39 -26 -32 -90 12 -111 70 -31 135 7 113 66 -13 34 -96
65 -125 45z"/>
<path d="M2232 2902 c-39 -6 -45 -35 -16 -86 20 -36 32 -47 60 -52 43 -8 74
16 74 57 0 46 -63 90 -118 81z m68 -78 c0 -2 -7 -4 -15 -4 -8 0 -15 4 -15 10
0 5 7 7 15 4 8 -4 15 -8 15 -10z"/>
<path d="M1532 2794 c-18 -12 -22 -25 -22 -67 0 -67 47 -252 98 -390 39 -105
38 -113 -8 -67 -8 9 -40 35 -70 60 -30 25 -57 47 -60 50 -3 3 -42 33 -87 68
-83 64 -115 75 -131 45 -22 -38 44 -142 176 -277 42 -44 70 -77 62 -74 -31 12
-226 89 -246 97 -15 7 -23 22 -28 51 -12 79 -74 190 -106 190 -28 0 -29 -32
-4 -70 27 -38 59 -128 50 -137 -3 -3 -39 4 -80 15 -88 26 -100 27 -119 8 -35
-35 14 -91 149 -172 17 -10 16 -12 -13 -28 -38 -19 -67 -20 -128 -4 -48 13
-71 4 -60 -24 15 -38 132 -58 193 -32 20 8 46 24 58 35 21 19 21 19 95 -12 71
-30 181 -67 264 -91 45 -12 53 -7 -75 -46 -98 -30 -456 -136 -780 -232 -263
-78 -404 -121 -408 -125 -3 -3 9 -44 27 -93 81 -213 208 -412 375 -586 42 -44
76 -82 76 -84 0 -3 -7 -13 -15 -22 -12 -14 -13 -19 -2 -35 13 -17 15 -17 39
-1 24 16 58 13 58 -5 0 -5 -13 -15 -29 -23 -39 -20 -61 -58 -55 -92 5 -31 46
-74 69 -74 24 0 68 20 82 38 10 11 16 13 19 6 4 -9 14 -9 39 -2 24 8 32 15 27
27 -5 13 -1 13 23 -3 49 -32 143 -84 164 -91 26 -8 27 -21 1 -35 -17 -9 -18
-14 -8 -30 11 -17 14 -17 39 -4 31 15 59 18 59 6 0 -4 -16 -16 -35 -26 -33
-18 -41 -30 -50 -74 -8 -43 70 -83 102 -51 5 5 25 12 43 14 18 3 35 7 38 10 3
3 -2 30 -10 60 -15 55 -15 56 6 49 11 -3 26 -13 31 -21 39 -59 48 -65 83 -59
20 3 38 10 42 16 5 8 39 5 116 -9 60 -11 134 -23 164 -26 62 -6 267 -6 320 0
46 6 110 15 146 20 48 8 168 37 180 44 9 5 -80 325 -176 631 -71 228 -185 626
-180 628 4 1 32 -13 63 -31 30 -19 83 -47 116 -63 50 -24 61 -34 62 -54 1 -33
16 -71 64 -158 31 -57 44 -72 60 -70 32 5 29 33 -14 105 -22 37 -43 80 -46 95
-6 23 -4 26 14 21 26 -7 51 13 51 39 0 11 -10 34 -22 50 l-21 31 24 18 c13 11
45 27 71 36 28 10 49 25 52 36 11 43 -69 33 -145 -18 l-51 -35 -52 37 c-28 21
-60 46 -71 56 -11 10 -48 36 -82 59 -35 23 -63 43 -63 44 0 1 71 1 158 1 166
-1 275 8 342 28 10 3 21 -8 33 -35 19 -44 78 -107 111 -120 49 -18 64 26 19
56 -37 23 -63 53 -78 88 -11 25 -10 31 6 47 20 20 18 59 -3 86 -12 15 14 67
55 110 25 27 28 35 17 48 -7 8 -16 15 -21 15 -18 0 -76 -61 -93 -98 l-17 -38
-57 19 c-43 15 -85 21 -170 21 l-113 1 38 30 c39 31 176 166 203 201 63 79 82
116 72 139 -16 35 -44 35 -128 -1 -155 -67 -270 -136 -372 -222 l-54 -45 40
79 c52 104 102 211 102 217 0 2 16 39 35 81 l35 77 31 -21 c16 -12 42 -40 56
-61 27 -41 41 -47 60 -28 9 9 7 21 -7 49 -19 37 -92 110 -110 110 -6 0 -10 8
-10 18 0 10 -5 23 -12 30 -14 14 -54 16 -63 2 -3 -5 -25 -7 -49 -4 -52 8 -152
-20 -161 -44 -11 -29 21 -42 60 -26 30 12 115 20 115 11 0 -2 -54 -114 -120
-248 -99 -200 -120 -236 -115 -199 11 91 17 136 21 160 2 14 7 58 10 99 6 63
5 76 -10 86 -21 16 -54 8 -60 -14 -3 -9 -8 -38 -11 -66 -4 -27 -20 -107 -36
-176 -16 -70 -29 -135 -29 -145 0 -44 -21 12 -60 165 -70 269 -128 434 -160
451 -11 6 -24 4 -38 -6z m794 -530 c-93 -88 -223 -182 -292 -209 l-39 -16 35
33 c84 79 356 279 379 278 3 -1 -34 -39 -83 -86z m179 -264 l60 -13 -35 -16
c-37 -16 -271 -22 -410 -11 l-65 5 50 14 c144 38 284 46 400 21z m-1640 -1331
c10 -30 -21 -62 -46 -48 -23 12 -24 32 -3 53 21 22 41 20 49 -5z m398 -271 c6
-18 -11 -48 -28 -48 -20 0 -24 23 -7 43 18 20 29 22 35 5z"/>
<path d="M855 2394 c-16 -9 -41 -17 -54 -19 -52 -6 -41 -49 21 -81 37 -19 72
-18 89 4 21 25 23 76 4 96 -20 20 -23 20 -60 0z"/>
<path d="M2750 2020 c-46 -46 -12 -100 69 -108 44 -4 51 -2 66 21 24 37 16 58
-30 84 -50 28 -79 29 -105 3z"/>
<path d="M2463 1573 c-17 -12 -17 -35 0 -75 19 -41 42 -58 83 -58 52 0 71 60
31 105 -23 27 -91 44 -114 28z m83 -80 c-7 -7 -26 7 -26 19 0 6 6 6 15 -2 9
-7 13 -15 11 -17z"/>
<path d="M544 750 c-12 -5 -30 -20 -41 -33 -14 -18 -24 -23 -34 -16 -36 23
-119 -4 -119 -39 0 -13 -2 -13 -13 2 -19 26 -71 12 -64 -18 5 -21 54 -190 62
-213 3 -9 12 -10 37 -1 18 6 34 12 35 13 2 0 -7 34 -18 74 -24 85 -20 121 15
121 26 0 34 -15 62 -114 16 -57 17 -58 46 -52 17 3 34 6 38 6 4 0 -3 39 -16
88 l-23 87 21 18 c21 17 22 17 39 0 9 -10 26 -51 38 -91 l22 -73 32 6 c18 4
34 9 36 11 6 6 -31 137 -50 176 -16 32 -37 47 -74 54 -5 1 -20 -2 -31 -6z"/>
<path d="M1012 547 c-6 -7 -9 -23 -5 -36 4 -17 12 -21 32 -19 22 2 26 8 26 33
0 23 -5 31 -21 33 -11 2 -26 -3 -32 -11z"/>
<path d="M1030 452 c0 -18 46 -182 54 -189 2 -2 15 1 30 7 19 7 26 15 22 28
-48 169 -50 172 -78 172 -20 0 -28 -5 -28 -18z"/>
<path d="M918 427 c-44 -22 -62 -67 -47 -120 18 -68 80 -96 147 -68 36 15 36
15 22 41 -8 16 -15 18 -35 10 -30 -11 -52 -4 -65 21 -22 39 -5 77 37 83 11 2
19 13 21 29 3 22 -1 26 -19 24 -13 -1 -40 -10 -61 -20z"/>
<path d="M688 363 c-65 -41 -56 -158 15 -190 89 -41 178 57 136 150 -24 52
-99 72 -151 40z m69 -41 c21 -13 33 -60 23 -87 -11 -28 -14 -29 -40 -15 -24
13 -39 59 -29 88 9 22 25 28 46 14z"/>
<path d="M525 320 c-27 -11 -45 -33 -51 -63 -5 -30 16 -55 54 -63 45 -10 52
-13 52 -24 0 -5 -18 -13 -41 -16 -29 -5 -39 -11 -35 -21 4 -8 6 -19 6 -24 0
-16 72 -1 100 20 51 37 28 105 -40 116 -19 3 -36 8 -38 10 -10 9 11 25 34 25
19 0 24 5 24 25 0 19 -5 25 -22 24 -13 0 -32 -4 -43 -9z"/>
<path d="M337 260 c-20 -16 -27 -31 -27 -55 0 -39 12 -51 63 -60 60 -11 56
-36 -6 -39 -16 -1 -22 -7 -22 -26 0 -22 4 -25 35 -22 101 7 126 123 30 138
-24 4 -40 12 -40 20 0 12 26 19 52 15 5 0 6 9 4 22 -4 31 -53 35 -89 7z"/>
<path d="M176 218 c-54 -12 -79 -34 -65 -59 9 -18 12 -18 32 -4 24 17 67 20
67 5 0 -5 -7 -10 -16 -10 -25 0 -74 -56 -74 -84 0 -56 70 -86 110 -46 10 10
22 15 25 11 6 -10 43 -3 50 9 6 10 -33 140 -48 158 -19 23 -41 29 -81 20z m54
-132 c0 -15 -7 -26 -19 -29 -24 -6 -36 19 -20 39 18 22 39 17 39 -10z"/>
</g>
</svg>
